<svg width="48" height="48" viewBox="0 0 48 48" fill="none" xmlns="http://www.w3.org/2000/svg">
<g clip-path="url(#clip0_246_893)">
<path d="M32.8018 23.6186C32.6276 23.4442 32.3858 23.344 32.1395 23.344C31.8931 23.344 31.6513 23.4441 31.477 23.6186C31.3027 23.793 31.2024 24.0347 31.2024 24.281C31.2024 24.5274 31.3025 24.7692 31.477 24.9434C31.6513 25.1177 31.8931 25.2181 32.1395 25.2181C32.3858 25.2181 32.6267 25.1178 32.8018 24.9434C32.9761 24.7692 33.0765 24.5274 33.0765 24.281C33.0765 24.0347 32.9762 23.7929 32.8018 23.6186Z" fill="#FF3F3A"/>
<path d="M38.9807 2.54175H8.9955C8.47809 2.54175 8.05847 2.96137 8.05847 3.47878V18.4714C8.05847 18.9888 8.47809 19.4084 8.9955 19.4084H23.0511V23.3439H7.04353C6.52612 23.3439 6.1065 23.7636 6.1065 24.281V31.5898H0.937031C0.419625 31.5898 0 32.0094 0 32.5268V44.5209C0 45.0383 0.419625 45.458 0.937031 45.458H12.9311C13.4485 45.458 13.8682 45.0383 13.8682 44.5209V32.5268C13.8682 32.0094 13.4485 31.5898 12.9311 31.5898H7.98056V25.218H23.0511V31.5898H18.003C17.4856 31.5898 17.066 32.0094 17.066 32.5268V44.5209C17.066 45.0383 17.4856 45.458 18.003 45.458H29.9971C30.5145 45.458 30.9341 45.0383 30.9341 44.5209V32.5268C30.9341 32.0093 30.5145 31.5898 29.9971 31.5898H24.9252V25.218H28.6733C29.1908 25.218 29.6104 24.7984 29.6104 24.281C29.6104 23.7636 29.1908 23.3439 28.6733 23.3439H24.9252V19.4084H38.9808C39.4982 19.4084 39.9178 18.9888 39.9178 18.4714V3.47878C39.9177 2.96128 39.4981 2.54175 38.9807 2.54175ZM11.9941 33.4639V43.5838H1.87406V33.4639H11.9941ZM29.06 33.4639V43.5838H18.94V33.4639H29.06ZM38.0437 17.5342H9.93253V8.16394H16.2803C16.7978 8.16394 17.2174 7.74431 17.2174 7.2269C17.2174 6.7095 16.7978 6.28987 16.2803 6.28987H9.93253V4.41581H38.0436V17.5342H38.0437Z" fill="#FF3F3A"/>
<path d="M47.0636 31.5901H41.8703V24.2813C41.8703 23.7639 41.4507 23.3442 40.9333 23.3442H35.7954C35.2779 23.3442 34.8583 23.7639 34.8583 24.2813C34.8583 24.7987 35.2779 25.2183 35.7954 25.2183H39.9963V31.5901H35.0695C34.5521 31.5901 34.1325 32.0097 34.1325 32.5271V44.5212C34.1325 45.0386 34.5521 45.4583 35.0695 45.4583H47.0636C47.581 45.4583 48.0007 45.0386 48.0007 44.5212V32.5271C48.0007 32.0096 47.581 31.5901 47.0636 31.5901ZM46.1266 43.5841H36.0066V33.4642H46.1266V43.5841Z" fill="#FF3F3A"/>
<path d="M20.8846 6.56488C20.7102 6.3906 20.4684 6.29028 20.2221 6.29028C19.9747 6.29028 19.734 6.39041 19.5587 6.56488C19.3845 6.73916 19.285 6.98094 19.285 7.22731C19.285 7.47378 19.3844 7.71547 19.5587 7.88966C19.7339 8.06394 19.9757 8.16435 20.2221 8.16435C20.4686 8.16435 20.7093 8.06413 20.8846 7.88966C21.0588 7.71547 21.1592 7.47369 21.1592 7.22731C21.1592 6.98094 21.059 6.73916 20.8846 6.56488Z" fill="#FF3F3A"/>
</g>
<defs>
<clipPath id="clip0_246_893">
<rect width="48" height="48" fill="white"/>
</clipPath>
</defs>
</svg>
