<svg width="16" height="16" viewBox="0 0 16 16" fill="none" xmlns="http://www.w3.org/2000/svg">
<g clip-path="url(#clip0_1_1357)">
<path d="M7.99984 15.3334C12.0432 15.3334 15.3332 12.0438 15.3332 8.00008C15.3332 7.30214 15.2357 6.61434 15.0428 5.95563C14.9478 5.63173 14.6096 5.44568 14.2848 5.54072C13.9606 5.63546 13.7751 5.97488 13.8698 6.29879C14.0296 6.84604 14.1109 7.41866 14.1109 8.00008C14.1109 11.3697 11.3695 14.1112 7.99984 14.1112C4.63022 14.1112 1.88873 11.3697 1.88873 8.00008C1.88873 4.63047 4.63022 1.88897 7.99984 1.88897C9.22445 1.88897 10.4027 2.24704 11.4071 2.92425C11.6866 3.11298 12.0668 3.03883 12.2552 2.75924C12.4438 2.47934 12.3703 2.09949 12.0904 1.9109C10.8834 1.09703 9.46898 0.666748 7.99984 0.666748C3.95645 0.666748 0.666504 3.95639 0.666504 8.00008C0.666504 12.0438 3.95645 15.3334 7.99984 15.3334Z" fill="#FF3F3A"/>
<path d="M14.8617 1.52861L7.99971 8.39026L5.8044 6.19527C5.54399 5.93502 5.12211 5.93502 4.86169 6.19527C4.60144 6.45569 4.60144 6.87756 4.86169 7.13798L7.52836 9.80465C7.65873 9.93502 7.82898 9.99996 7.99971 9.99996C8.17045 9.99996 8.3407 9.93502 8.47107 9.80465L15.8044 2.47131C16.0647 2.2109 16.0647 1.78902 15.8044 1.52861C15.544 1.26835 15.1221 1.26835 14.8617 1.52861Z" fill="#FF3F3A"/>
</g>
<defs>
<clipPath id="clip0_1_1357">
<rect width="16" height="16" fill="white"/>
</clipPath>
</defs>
</svg>
