<svg width="130" height="22" viewBox="0 0 130 22" fill="none" xmlns="http://www.w3.org/2000/svg">
<g clip-path="url(#clip0_132_161)">
<path d="M0 11.1C0 4.99999 3.3 1.29999 8.7 1.29999C12.8 1.29999 16.1 3.79999 16.7 7.49999C16.8 7.89999 16.5 8.19999 16.1 8.19999H13.5C13.2 8.19999 13 7.99999 12.9 7.69999C12.4 5.79999 10.8 4.59999 8.7 4.59999C5.8 4.59999 4 7.09999 4 11.1C4 15.1 5.8 17.6 8.8 17.6C10.9 17.6 12.4 16.5 13 14.7C13.1 14.4 13.3 14.2 13.6 14.2H16.2C16.6 14.2 16.9 14.6 16.8 14.9C16.2 18.5 13 20.9 8.8 20.9C3.3 20.9 0 17.1 0 11.1Z" fill="white"/>
<path d="M24.2997 20.4002H21.3997C21.0997 20.4002 20.8997 20.2002 20.8997 19.9002V2.60024C20.8997 2.20024 21.2997 1.80024 21.6997 1.80024H28.6997C32.7997 1.80024 35.2997 4.10024 35.2997 7.70024C35.2997 9.80024 34.2997 11.7002 32.5997 12.7002C32.1997 12.9002 32.0997 13.4002 32.2997 13.7002L35.3997 19.6002C35.5997 19.9002 35.2997 20.3002 34.9997 20.3002H31.6997C31.4997 20.3002 31.2997 20.2002 31.1997 20.0002L28.2997 14.0002C28.1997 13.7002 27.8997 13.6002 27.5997 13.6002H25.2997C24.9997 13.6002 24.7997 13.8002 24.7997 14.1002V20.0002C24.8997 20.2002 24.5997 20.4002 24.2997 20.4002ZM24.8997 10.2002C24.8997 10.5002 25.0997 10.7002 25.3997 10.7002H28.3997C30.3997 10.7002 31.4997 9.60024 31.4997 7.80024C31.4997 6.00024 30.2997 4.90024 28.3997 4.90024H25.4997C25.1997 4.90024 24.9997 5.10024 24.9997 5.40024V10.2002H24.8997Z" fill="white"/>
<path d="M51.4998 20.4002H40.4998C40.0998 20.4002 39.7998 20.1002 39.7998 19.7002V2.50024C39.7998 2.10024 40.0998 1.80024 40.4998 1.80024H51.4998C51.8998 1.80024 52.1998 2.10024 52.1998 2.50024V4.40024C52.1998 4.80024 51.8998 5.10024 51.4998 5.10024H44.1998C43.8998 5.10024 43.6998 5.30024 43.6998 5.60024V9.00024C43.6998 9.30024 43.8998 9.50024 44.1998 9.50024H50.9998C51.3998 9.50024 51.6998 9.80024 51.6998 10.2002V11.9002C51.6998 12.3002 51.3998 12.6002 50.9998 12.6002H44.1998C43.8998 12.6002 43.6998 12.8002 43.6998 13.1002V16.9002C43.6998 17.2002 43.8998 17.4002 44.1998 17.4002H51.4998C51.8998 17.4002 52.1998 17.7002 52.1998 18.1002V20.0002C52.1998 20.1002 51.8998 20.4002 51.4998 20.4002Z" fill="white"/>
<path d="M66.9999 15.9002H61.2999C60.9999 15.9002 60.7999 16.1002 60.6999 16.3002L59.5999 20.0002C59.4999 20.3002 59.2999 20.4002 58.9999 20.4002H56.3999C55.9999 20.4002 55.6999 20.0002 55.7999 19.6002L61.7999 2.20024C61.8999 2.00024 62.0999 1.80024 62.3999 1.80024H66.0999C66.3999 1.80024 66.5999 2.00024 66.6999 2.20024L72.6999 19.6002C72.7999 20.0002 72.4999 20.4002 72.0999 20.4002H69.1999C68.8999 20.4002 68.6999 20.2002 68.5999 20.0002L67.4999 16.3002C67.4999 16.1002 67.1999 15.9002 66.9999 15.9002ZM62.0999 13.0002H66.1999C66.3999 13.0002 66.4999 12.8002 66.4999 12.6002L64.2999 5.60024H64.0999L61.8999 12.6002C61.7999 12.8002 61.8999 13.0002 62.0999 13.0002Z" fill="white"/>
<path d="M79.0001 19.7006V5.50063C79.0001 5.20063 78.8001 5.00063 78.5001 5.00063H74.1001C73.7001 5.00063 73.3001 4.70063 73.3001 4.20063V2.50063C73.3001 2.10063 73.6001 1.70063 74.1001 1.70063H87.7001C88.1001 1.70063 88.5001 2.00063 88.5001 2.50063V4.20063C88.5001 4.60063 88.2001 5.00063 87.7001 5.00063H83.3001C83.0001 5.00063 82.8001 5.20063 82.8001 5.50063V19.8006C82.8001 20.2006 82.5001 20.5006 82.1001 20.5006H79.6001C79.3001 20.4006 79.0001 20.1006 79.0001 19.7006Z" fill="white"/>
<path d="M103.8 20.4002H92.7999C92.3999 20.4002 92.0999 20.1002 92.0999 19.7002V2.50024C92.0999 2.10024 92.3999 1.80024 92.7999 1.80024H103.8C104.2 1.80024 104.5 2.10024 104.5 2.50024V4.40024C104.5 4.80024 104.2 5.10024 103.8 5.10024H96.4999C96.1999 5.10024 95.9999 5.30024 95.9999 5.60024V9.00024C95.9999 9.30024 96.1999 9.50024 96.4999 9.50024H103.3C103.7 9.50024 104 9.80024 104 10.2002V11.9002C104 12.3002 103.7 12.6002 103.3 12.6002H96.4999C96.1999 12.6002 95.9999 12.8002 95.9999 13.1002V16.9002C95.9999 17.2002 96.1999 17.4002 96.4999 17.4002H103.8C104.2 17.4002 104.5 17.7002 104.5 18.1002V20.0002C104.5 20.1002 104.2 20.4002 103.8 20.4002Z" fill="white"/>
<path d="M117.7 9.70044L111.5 1.60044C111.1 1.20044 110.6 1.00044 110.1 1.00044C109.6 1.00044 109.1 1.20044 108.7 1.60044C108 2.40044 108 3.60044 108.7 4.40044L113.6 11.0004L108.7 17.6004C108 18.4004 108 19.6004 108.7 20.4004C109.1 20.8004 109.6 21.0004 110.1 21.0004C110.6 21.0004 111.1 20.8004 111.5 20.4004L117.7 12.3004C118.4 11.7004 118.4 10.5004 117.7 9.70044Z" fill="#FF3F3A"/>
<path d="M120.343 9.70044L126.543 1.60044C126.943 1.20044 127.443 1.00044 127.943 1.00044C128.443 1.00044 128.943 1.20044 129.343 1.60044C130.043 2.40044 130.043 3.60044 129.343 4.40044L124.443 11.0004L129.343 17.6004C130.043 18.4004 130.043 19.6004 129.343 20.4004C128.943 20.8004 128.443 21.0004 127.943 21.0004C127.443 21.0004 126.943 20.8004 126.543 20.4004L120.343 12.3004C119.643 11.7004 119.643 10.5004 120.343 9.70044Z" fill="#FF3F3A"/>
</g>
<defs>
<clipPath id="clip0_132_161">
<rect width="130" height="22" fill="white"/>
</clipPath>
</defs>
</svg>
