<svg width="48" height="48" viewBox="0 0 48 48" fill="none" xmlns="http://www.w3.org/2000/svg">
<g clip-path="url(#clip0_246_1265)">
<path d="M33.2983 37.0002C32.9797 36.6695 32.3919 36.5746 31.9598 36.988C31.9568 36.9909 31.9537 36.9939 31.9506 36.9969C31.5242 37.4163 31.6013 38.0067 31.9222 38.3352C32.0926 38.5098 32.3386 38.6173 32.5961 38.6173C32.8234 38.6173 33.0596 38.5336 33.2609 38.3383C33.6902 37.922 33.6171 37.3309 33.2983 37.0002Z" fill="#FF3F3A"/>
<path d="M41.7866 18.9524C41.6066 18.4668 41.0674 18.2192 40.5819 18.3989C40.0964 18.5787 39.8486 19.1179 40.0285 19.6035C40.8377 21.7882 41.248 24.0885 41.248 26.4404C41.248 37.2945 32.4174 46.125 21.5633 46.125C17.5356 46.125 13.6639 44.9173 10.3662 42.6325C9.94087 42.3376 9.35671 42.4435 9.06187 42.8691C8.76693 43.2946 8.87287 43.8786 9.29849 44.1734C12.9112 46.6767 17.1523 47.9997 21.5634 47.9997C27.3222 47.9997 32.7361 45.7572 36.8082 41.685C40.8803 37.613 43.1229 32.199 43.1229 26.4403C43.1227 23.8655 42.673 21.3462 41.7866 18.9524Z" fill="#FF3F3A"/>
<path d="M28.8234 6.13377C26.4978 5.30221 24.0553 4.88062 21.5636 4.88062C15.8048 4.88062 10.3909 7.1232 6.31876 11.1951C2.24674 15.2673 0.00415039 20.6814 0.00415039 26.4401C0.00415039 30.9058 1.35752 35.1904 3.91821 38.8305C4.10064 39.09 4.3908 39.2287 4.68573 39.2287C4.87202 39.2287 5.06017 39.1733 5.22414 39.0579C5.64761 38.7599 5.74942 38.1752 5.45158 37.7518C3.1143 34.4292 1.87887 30.5176 1.87887 26.44C1.87887 15.5858 10.7094 6.75533 21.5635 6.75533C23.8396 6.75533 26.0697 7.14008 28.1921 7.89898C28.6795 8.07336 29.2161 7.81948 29.3903 7.33199C29.5647 6.84458 29.3108 6.30814 28.8234 6.13377Z" fill="#FF3F3A"/>
<path d="M47.9249 7.77403C47.7797 7.42369 47.438 7.19541 47.0588 7.19541H42.1335L42.6632 6.66572C43.0292 6.29972 43.0292 5.7061 42.6632 5.34C42.2971 4.97401 41.7036 4.97401 41.3374 5.34L40.801 5.87644V0.9377C40.801 0.55867 40.5725 0.216764 40.2224 0.0716395C39.872 -0.0734852 39.4688 0.00676465 39.2009 0.274795L30.9374 8.53828C30.7616 8.71406 30.6628 8.95247 30.6628 9.20109V12.4528C27.959 10.6841 24.8419 9.75562 21.5623 9.75562C12.3622 9.75562 4.8772 17.2406 4.8772 26.4407C4.8772 35.6409 12.3622 43.1259 21.5623 43.1259C24.6159 43.1259 27.6034 42.2931 30.2016 40.7177C30.6443 40.4493 30.7855 39.8728 30.5172 39.4302C30.2489 38.9876 29.6724 38.8461 29.2297 39.1146C26.9245 40.5123 24.2732 41.2511 21.5623 41.2511C13.3959 41.2511 6.75191 34.6072 6.75191 26.4407C6.75191 18.2741 13.3959 11.6302 21.5623 11.6302C24.897 11.6302 28.0421 12.7111 30.6628 14.7559V16.0145L28.9546 17.7227C26.9597 16.0285 24.3786 15.0047 21.5623 15.0047C15.2565 15.0047 10.1264 20.1348 10.1264 26.4406C10.1264 32.7464 15.2565 37.8764 21.5623 37.8764C27.8681 37.8764 32.9982 32.7464 32.9982 26.4406C32.9982 23.6244 31.9745 21.0433 30.2802 19.0483L31.9952 17.3333H33.2422C35.263 19.9232 36.3726 23.1449 36.3726 26.4406C36.3726 29.204 35.6068 31.8994 34.158 34.2352C33.8851 34.6751 34.0205 35.2529 34.4606 35.5259C34.6145 35.6213 34.7851 35.6668 34.9537 35.6668C35.2674 35.6668 35.5738 35.5094 35.7513 35.2234C37.3844 32.5906 38.2474 29.5536 38.2474 26.4406C38.2474 23.2027 37.2964 20.0281 35.5429 17.3333H38.7951C39.0438 17.3333 39.2821 17.2345 39.4579 17.0587L47.7214 8.79525C47.9897 8.5275 48.0699 8.12428 47.9249 7.77403ZM31.1237 26.4407C31.1237 31.7128 26.8345 36.0019 21.5625 36.0019C16.2905 36.0019 12.0013 31.7128 12.0013 26.4407C12.0013 21.1687 16.2905 16.8796 21.5625 16.8796C23.8617 16.8796 25.9737 17.6955 27.6248 19.0528L25.49 21.1877C24.3943 20.3663 23.0343 19.8792 21.5626 19.8792C17.9445 19.8792 15.0011 22.8228 15.0011 26.4407C15.0011 30.0588 17.9446 33.0023 21.5626 33.0023C25.1807 33.0023 28.1242 30.0587 28.1242 26.4407C28.1242 24.9691 27.637 23.609 26.8157 22.5133L28.9506 20.3784C30.3078 22.0295 31.1237 24.1415 31.1237 26.4407ZM20.8997 27.1036C21.0828 27.2867 21.3226 27.3782 21.5625 27.3782C21.8024 27.3782 22.0422 27.2867 22.2253 27.1036L25.4708 23.8581C25.9622 24.5992 26.2493 25.4869 26.2493 26.4407C26.2493 29.0251 24.1468 31.1276 21.5625 31.1276C18.9782 31.1276 16.8757 29.0251 16.8757 26.4407C16.8757 23.8564 18.9782 21.7539 21.5625 21.7539C22.5164 21.7539 23.404 22.0411 24.1452 22.5324L20.8997 25.7779C20.5336 26.1439 20.5336 26.7375 20.8997 27.1036ZM32.5377 14.1398V9.5894L38.9264 3.20073V7.75116L32.5377 14.1398ZM38.4071 15.4588H33.8702L40.2589 9.07012H44.7958L38.4071 15.4588Z" fill="#FF3F3A"/>
<path d="M7.6245 40.3404C7.45022 40.1661 7.20844 40.0657 6.96188 40.0657C6.71429 40.0657 6.47251 40.166 6.29916 40.3404C6.12385 40.5147 6.02448 40.7565 6.02448 41.0031C6.02448 41.2496 6.12385 41.4914 6.29916 41.6658C6.47344 41.8402 6.71438 41.9405 6.96188 41.9405C7.20844 41.9405 7.45022 41.8402 7.6245 41.6658C7.79888 41.4914 7.89928 41.2496 7.89928 41.0031C7.89928 40.7565 7.79897 40.5157 7.6245 40.3404Z" fill="#FF3F3A"/>
</g>
<defs>
<clipPath id="clip0_246_1265">
<rect width="48" height="48" fill="white"/>
</clipPath>
</defs>
</svg>
