<svg width="16" height="16" viewBox="0 0 16 16" fill="none" xmlns="http://www.w3.org/2000/svg">
<path fill-rule="evenodd" clip-rule="evenodd" d="M5.66683 1.94808C5.11454 1.94808 4.66683 2.39579 4.66683 2.94808V13.0522C4.66683 13.6045 5.11454 14.0522 5.66683 14.0522H10.3335C10.8858 14.0522 11.3335 13.6045 11.3335 13.0522V2.94808C11.3335 2.39579 10.8858 1.94808 10.3335 1.94808H10.2779L10.1155 2.33771C10.012 2.58612 9.76928 2.74793 9.50016 2.74793H6.50016C6.23105 2.74793 5.98832 2.58612 5.8848 2.33771L5.72242 1.94808H5.66683ZM3.3335 2.94808C3.3335 1.65942 4.37817 0.614746 5.66683 0.614746H10.3335C11.6222 0.614746 12.6668 1.65942 12.6668 2.94808V13.0522C12.6668 14.3409 11.6222 15.3856 10.3335 15.3856H5.66683C4.37816 15.3856 3.3335 14.3409 3.3335 13.0522V2.94808Z" fill="white"/>
</svg>
