<svg width="16" height="16" viewBox="0 0 16 16" fill="none" xmlns="http://www.w3.org/2000/svg">
<path fill-rule="evenodd" clip-rule="evenodd" d="M15.1668 11.9998V4.6665C15.1668 3.56193 14.2714 2.6665 13.1668 2.6665L2.83349 2.66651C1.72892 2.66652 0.833496 3.56195 0.833496 4.66651V11.9998C0.833496 13.1044 1.72893 13.9998 2.8335 13.9998L13.1668 13.9998C14.2714 13.9998 15.1668 13.1044 15.1668 11.9998ZM13.8335 6.17281V11.9998C13.8335 12.368 13.535 12.6665 13.1668 12.6665L2.8335 12.6665C2.46531 12.6665 2.16683 12.368 2.16683 11.9998L2.16683 6.17272L6.87561 9.37469C7.55433 9.83622 8.44613 9.83622 9.12485 9.37469L13.8335 6.17281ZM13.8259 4.56558C13.7773 4.24528 13.5007 3.99984 13.1668 3.99984L2.83349 3.99985C2.49965 3.99985 2.22311 4.24524 2.17443 4.5655L7.62535 8.27212C7.85159 8.42597 8.14886 8.42597 8.3751 8.27212L13.8259 4.56558Z" fill="white"/>
</svg>
