<svg width="18" height="18" viewBox="0 0 18 18" fill="none" xmlns="http://www.w3.org/2000/svg">
<path fill-rule="evenodd" clip-rule="evenodd" d="M9.0002 1.70841C7.38937 1.70841 6.08353 3.01425 6.08353 4.62508C6.08353 6.23591 7.38937 7.54175 9.0002 7.54175C10.611 7.54175 11.9169 6.23591 11.9169 4.62508C11.9169 3.01425 10.611 1.70841 9.0002 1.70841ZM4.41686 4.62508C4.41686 2.09378 6.46889 0.041748 9.0002 0.041748C11.5315 0.041748 13.5835 2.09378 13.5835 4.62508C13.5835 7.15639 11.5315 9.20842 9.0002 9.20842C6.46889 9.20842 4.41686 7.15639 4.41686 4.62508Z" fill="#424551"/>
<path fill-rule="evenodd" clip-rule="evenodd" d="M4.08691 11.7084C3.50914 11.7084 3.05756 11.9897 2.87424 12.3939C2.62053 12.9534 2.39078 13.6194 2.33656 14.2511C2.31233 14.5334 2.43007 14.7415 2.5923 14.8423C3.44993 15.3751 5.43719 16.2917 9.00019 16.2917C12.5632 16.2917 14.5505 15.3751 15.4081 14.8423C15.5703 14.7415 15.6881 14.5334 15.6638 14.2511C15.6096 13.6194 15.3799 12.9534 15.1261 12.3939C14.9428 11.9897 14.4912 11.7084 13.9135 11.7084H4.08691ZM1.35639 11.7055C1.86301 10.5885 2.99429 10.0417 4.08691 10.0417H13.9135C15.0061 10.0417 16.1374 10.5885 16.644 11.7055C16.935 12.3472 17.2472 13.2097 17.3244 14.1085C17.3946 14.9271 17.0544 15.7817 16.2876 16.2581C15.1596 16.9587 12.8665 17.9584 9.00019 17.9584C5.13386 17.9584 2.84078 16.9587 1.71283 16.2581C0.945947 15.7817 0.605747 14.9271 0.676001 14.1085C0.753149 13.2097 1.0654 12.3472 1.35639 11.7055Z" fill="#424551"/>
</svg>
