<svg width="150" height="52" viewBox="0 0 150 52" fill="none" xmlns="http://www.w3.org/2000/svg">
<path d="M68.0836 21.378H69.6656C69.829 21.378 69.9643 21.4177 70.0716 21.497C70.1836 21.5717 70.2583 21.6743 70.2956 21.805L72.0176 27.86C72.0596 28.0093 72.097 28.1727 72.1296 28.35C72.167 28.5227 72.202 28.707 72.2346 28.903C72.272 28.707 72.3116 28.5227 72.3536 28.35C72.4003 28.1727 72.4493 28.0093 72.5006 27.86L74.4886 21.805C74.526 21.6977 74.5983 21.5997 74.7056 21.511C74.8176 21.4223 74.953 21.378 75.1116 21.378H75.6646C75.828 21.378 75.9633 21.4177 76.0706 21.497C76.178 21.5717 76.2526 21.6743 76.2946 21.805L78.2686 27.86C78.3713 28.1587 78.46 28.49 78.5346 28.854C78.5673 28.672 78.6 28.497 78.6326 28.329C78.67 28.161 78.7073 28.0047 78.7446 27.86L80.4666 21.805C80.4993 21.6883 80.5716 21.588 80.6836 21.504C80.7956 21.42 80.931 21.378 81.0896 21.378H82.5666L79.4236 31.5H77.7226L75.5106 24.584C75.4826 24.4953 75.4523 24.3997 75.4196 24.297C75.3916 24.1943 75.3636 24.0847 75.3356 23.968C75.3076 24.0847 75.2773 24.1943 75.2446 24.297C75.2166 24.3997 75.1886 24.4953 75.1606 24.584L72.9276 31.5H71.2266L68.0836 21.378ZM88.5106 31.5H87.7336C87.5703 31.5 87.4419 31.4767 87.3486 31.43C87.2553 31.3787 87.1853 31.2783 87.1386 31.129L86.9846 30.618C86.8026 30.7813 86.6229 30.926 86.4456 31.052C86.2729 31.1733 86.0933 31.276 85.9066 31.36C85.7199 31.444 85.5216 31.507 85.3116 31.549C85.1016 31.591 84.8683 31.612 84.6116 31.612C84.3083 31.612 84.0283 31.5723 83.7716 31.493C83.5149 31.409 83.2933 31.2853 83.1066 31.122C82.9246 30.9587 82.7823 30.7557 82.6796 30.513C82.5769 30.2703 82.5256 29.988 82.5256 29.666C82.5256 29.3953 82.5956 29.1293 82.7356 28.868C82.8803 28.602 83.1183 28.364 83.4496 28.154C83.7809 27.9393 84.2219 27.762 84.7726 27.622C85.3233 27.482 86.0069 27.4027 86.8236 27.384V26.964C86.8236 26.4833 86.7209 26.1287 86.5156 25.9C86.3149 25.6667 86.0209 25.55 85.6336 25.55C85.3536 25.55 85.1203 25.5827 84.9336 25.648C84.7469 25.7133 84.5836 25.788 84.4436 25.872C84.3083 25.9513 84.1823 26.0237 84.0656 26.089C83.9489 26.1543 83.8206 26.187 83.6806 26.187C83.5639 26.187 83.4636 26.1567 83.3796 26.096C83.2956 26.0353 83.2279 25.9607 83.1766 25.872L82.8616 25.319C83.6876 24.563 84.6839 24.185 85.8506 24.185C86.2706 24.185 86.6439 24.255 86.9706 24.395C87.3019 24.5303 87.5819 24.7217 87.8106 24.969C88.0393 25.2117 88.2119 25.5033 88.3286 25.844C88.4499 26.1847 88.5106 26.558 88.5106 26.964V31.5ZM85.1506 30.422C85.3279 30.422 85.4913 30.4057 85.6406 30.373C85.7899 30.3403 85.9299 30.2913 86.0606 30.226C86.1959 30.1607 86.3243 30.0813 86.4456 29.988C86.5716 29.89 86.6976 29.7757 86.8236 29.645V28.434C86.3196 28.4573 85.8973 28.5017 85.5566 28.567C85.2206 28.6277 84.9499 28.707 84.7446 28.805C84.5393 28.903 84.3923 29.0173 84.3036 29.148C84.2196 29.2787 84.1776 29.421 84.1776 29.575C84.1776 29.8783 84.2663 30.0953 84.4436 30.226C84.6256 30.3567 84.8613 30.422 85.1506 30.422ZM92.5697 31.612C91.9491 31.612 91.4707 31.437 91.1347 31.087C90.7987 30.7323 90.6307 30.2447 90.6307 29.624V25.613H89.9027C89.8094 25.613 89.7277 25.5827 89.6577 25.522C89.5924 25.4613 89.5597 25.3703 89.5597 25.249V24.563L90.7147 24.374L91.0787 22.414C91.0974 22.3207 91.1394 22.2483 91.2047 22.197C91.2747 22.1457 91.3611 22.12 91.4637 22.12H92.3597V24.381H94.2497V25.613H92.3597V29.505C92.3597 29.729 92.4157 29.904 92.5277 30.03C92.6397 30.156 92.7891 30.219 92.9757 30.219C93.0831 30.219 93.1717 30.2073 93.2417 30.184C93.3164 30.156 93.3794 30.128 93.4307 30.1C93.4867 30.072 93.5357 30.0463 93.5777 30.023C93.6197 29.995 93.6617 29.981 93.7037 29.981C93.7551 29.981 93.7971 29.995 93.8297 30.023C93.8624 30.0463 93.8974 30.0837 93.9347 30.135L94.4527 30.975C94.2007 31.185 93.9114 31.3437 93.5847 31.451C93.2581 31.5583 92.9197 31.612 92.5697 31.612ZM100.672 25.837C100.62 25.9023 100.569 25.9537 100.518 25.991C100.471 26.0283 100.401 26.047 100.308 26.047C100.219 26.047 100.133 26.0213 100.049 25.97C99.9648 25.914 99.8645 25.8533 99.7478 25.788C99.6311 25.718 99.4911 25.6573 99.3278 25.606C99.1691 25.55 98.9708 25.522 98.7328 25.522C98.4295 25.522 98.1635 25.578 97.9348 25.69C97.7061 25.7973 97.5148 25.9537 97.3608 26.159C97.2115 26.3643 97.0995 26.614 97.0248 26.908C96.9501 27.1973 96.9128 27.5263 96.9128 27.895C96.9128 28.2777 96.9525 28.6183 97.0318 28.917C97.1158 29.2157 97.2348 29.4677 97.3888 29.673C97.5428 29.8737 97.7295 30.0277 97.9488 30.135C98.1681 30.2377 98.4155 30.289 98.6908 30.289C98.9661 30.289 99.1878 30.2563 99.3558 30.191C99.5285 30.121 99.6731 30.0463 99.7898 29.967C99.9065 29.883 100.007 29.8083 100.091 29.743C100.179 29.673 100.277 29.638 100.385 29.638C100.525 29.638 100.63 29.6917 100.7 29.799L101.197 30.429C101.005 30.653 100.798 30.842 100.574 30.996C100.35 31.1453 100.116 31.2667 99.8738 31.36C99.6358 31.4487 99.3885 31.5117 99.1318 31.549C98.8751 31.5863 98.6208 31.605 98.3688 31.605C97.9255 31.605 97.5078 31.5233 97.1158 31.36C96.7238 31.192 96.3808 30.9493 96.0868 30.632C95.7975 30.3147 95.5665 29.9273 95.3938 29.47C95.2258 29.008 95.1418 28.483 95.1418 27.895C95.1418 27.3677 95.2165 26.88 95.3658 26.432C95.5198 25.9793 95.7438 25.5897 96.0378 25.263C96.3318 24.9317 96.6958 24.6727 97.1298 24.486C97.5638 24.2993 98.0631 24.206 98.6278 24.206C99.1645 24.206 99.6335 24.2923 100.035 24.465C100.441 24.6377 100.805 24.885 101.127 25.207L100.672 25.837ZM102.297 31.5V21.098H104.026V25.095C104.306 24.829 104.614 24.6143 104.95 24.451C105.286 24.2877 105.68 24.206 106.133 24.206C106.525 24.206 106.872 24.2737 107.176 24.409C107.479 24.5397 107.731 24.7263 107.932 24.969C108.137 25.207 108.291 25.494 108.394 25.83C108.501 26.1613 108.555 26.5277 108.555 26.929V31.5H106.826V26.929C106.826 26.4903 106.723 26.152 106.518 25.914C106.317 25.6713 106.014 25.55 105.608 25.55C105.309 25.55 105.029 25.6177 104.768 25.753C104.506 25.8883 104.259 26.0727 104.026 26.306V31.5H102.297ZM112.065 21.378H113.584C113.747 21.378 113.88 21.4177 113.983 21.497C114.085 21.5763 114.162 21.679 114.214 21.805L116.594 27.979C116.673 28.1797 116.748 28.4013 116.818 28.644C116.892 28.882 116.962 29.134 117.028 29.4C117.135 28.8633 117.268 28.3897 117.427 27.979L119.8 21.805C119.842 21.6977 119.916 21.5997 120.024 21.511C120.131 21.4223 120.264 21.378 120.423 21.378H121.942L117.854 31.5H116.153L112.065 21.378ZM124.741 24.318V31.5H123.012V24.318H124.741ZM125 22.225C125 22.3743 124.97 22.5143 124.909 22.645C124.849 22.7757 124.767 22.89 124.664 22.988C124.566 23.086 124.45 23.1653 124.314 23.226C124.179 23.282 124.034 23.31 123.88 23.31C123.731 23.31 123.589 23.282 123.453 23.226C123.323 23.1653 123.208 23.086 123.11 22.988C123.012 22.89 122.933 22.7757 122.872 22.645C122.816 22.5143 122.788 22.3743 122.788 22.225C122.788 22.071 122.816 21.9263 122.872 21.791C122.933 21.6557 123.012 21.539 123.11 21.441C123.208 21.343 123.323 21.266 123.453 21.21C123.589 21.1493 123.731 21.119 123.88 21.119C124.034 21.119 124.179 21.1493 124.314 21.21C124.45 21.266 124.566 21.343 124.664 21.441C124.767 21.539 124.849 21.6557 124.909 21.791C124.97 21.9263 125 22.071 125 22.225ZM131.755 31.5C131.531 31.5 131.384 31.395 131.314 31.185L131.174 30.492C131.025 30.66 130.868 30.8117 130.705 30.947C130.542 31.0823 130.364 31.199 130.173 31.297C129.986 31.395 129.783 31.4697 129.564 31.521C129.349 31.577 129.116 31.605 128.864 31.605C128.472 31.605 128.113 31.5233 127.786 31.36C127.459 31.1967 127.177 30.961 126.939 30.653C126.706 30.3403 126.524 29.9553 126.393 29.498C126.267 29.0407 126.204 28.518 126.204 27.93C126.204 27.398 126.276 26.9033 126.421 26.446C126.566 25.9887 126.773 25.592 127.044 25.256C127.315 24.92 127.639 24.6587 128.017 24.472C128.395 24.2807 128.82 24.185 129.291 24.185C129.692 24.185 130.035 24.2503 130.32 24.381C130.605 24.507 130.859 24.6773 131.083 24.892V21.098H132.812V31.5H131.755ZM129.452 30.233C129.811 30.233 130.117 30.1583 130.369 30.009C130.621 29.8597 130.859 29.6473 131.083 29.372V26.152C130.887 25.914 130.672 25.746 130.439 25.648C130.21 25.55 129.963 25.501 129.697 25.501C129.436 25.501 129.198 25.55 128.983 25.648C128.773 25.746 128.593 25.8953 128.444 26.096C128.299 26.292 128.187 26.544 128.108 26.852C128.029 27.1553 127.989 27.5147 127.989 27.93C127.989 28.35 128.022 28.707 128.087 29.001C128.157 29.2903 128.255 29.5283 128.381 29.715C128.507 29.897 128.661 30.03 128.843 30.114C129.025 30.1933 129.228 30.233 129.452 30.233ZM137.653 24.206C138.106 24.206 138.521 24.2783 138.899 24.423C139.282 24.5677 139.611 24.78 139.886 25.06C140.162 25.3353 140.376 25.676 140.53 26.082C140.684 26.4833 140.761 26.943 140.761 27.461C140.761 27.5917 140.754 27.7013 140.74 27.79C140.731 27.874 140.71 27.9417 140.677 27.993C140.649 28.0397 140.61 28.0747 140.558 28.098C140.507 28.1167 140.442 28.126 140.362 28.126H135.924C135.976 28.8633 136.174 29.4047 136.519 29.75C136.865 30.0953 137.322 30.268 137.891 30.268C138.171 30.268 138.412 30.2353 138.612 30.17C138.818 30.1047 138.995 30.0323 139.144 29.953C139.298 29.8737 139.431 29.8013 139.543 29.736C139.66 29.6707 139.772 29.638 139.879 29.638C139.949 29.638 140.01 29.652 140.061 29.68C140.113 29.708 140.157 29.7477 140.194 29.799L140.698 30.429C140.507 30.653 140.292 30.842 140.054 30.996C139.816 31.1453 139.567 31.2667 139.305 31.36C139.049 31.4487 138.785 31.5117 138.514 31.549C138.248 31.5863 137.989 31.605 137.737 31.605C137.238 31.605 136.774 31.5233 136.344 31.36C135.915 31.192 135.542 30.947 135.224 30.625C134.907 30.2983 134.657 29.897 134.475 29.421C134.293 28.9403 134.202 28.385 134.202 27.755C134.202 27.265 134.282 26.8053 134.44 26.376C134.599 25.942 134.825 25.5663 135.119 25.249C135.418 24.927 135.78 24.6727 136.204 24.486C136.634 24.2993 137.117 24.206 137.653 24.206ZM137.688 25.445C137.184 25.445 136.79 25.5873 136.505 25.872C136.221 26.1567 136.039 26.5603 135.959 27.083H139.207C139.207 26.859 139.177 26.649 139.116 26.453C139.056 26.2523 138.962 26.0773 138.836 25.928C138.71 25.7787 138.552 25.662 138.36 25.578C138.169 25.4893 137.945 25.445 137.688 25.445ZM145.23 24.206C145.767 24.206 146.252 24.2923 146.686 24.465C147.125 24.6377 147.498 24.8827 147.806 25.2C148.114 25.5173 148.352 25.9047 148.52 26.362C148.688 26.8193 148.772 27.3303 148.772 27.895C148.772 28.4643 148.688 28.9777 148.52 29.435C148.352 29.8923 148.114 30.282 147.806 30.604C147.498 30.926 147.125 31.1733 146.686 31.346C146.252 31.5187 145.767 31.605 145.23 31.605C144.693 31.605 144.206 31.5187 143.767 31.346C143.328 31.1733 142.953 30.926 142.64 30.604C142.332 30.282 142.092 29.8923 141.919 29.435C141.751 28.9777 141.667 28.4643 141.667 27.895C141.667 27.3303 141.751 26.8193 141.919 26.362C142.092 25.9047 142.332 25.5173 142.64 25.2C142.953 24.8827 143.328 24.6377 143.767 24.465C144.206 24.2923 144.693 24.206 145.23 24.206ZM145.23 30.275C145.827 30.275 146.268 30.0743 146.553 29.673C146.842 29.2717 146.987 28.6837 146.987 27.909C146.987 27.1343 146.842 26.544 146.553 26.138C146.268 25.732 145.827 25.529 145.23 25.529C144.623 25.529 144.175 25.7343 143.886 26.145C143.597 26.551 143.452 27.139 143.452 27.909C143.452 28.679 143.597 29.267 143.886 29.673C144.175 30.0743 144.623 30.275 145.23 30.275Z" fill="#1E212C"/>
<circle cx="25.9996" cy="26" r="26" fill="#FF3F3A"/>
<path d="M32.4996 25.134C33.1663 25.5189 33.1663 26.4811 32.4996 26.866L23.4996 32.0622C22.833 32.4471 21.9996 31.966 21.9996 31.1962L21.9996 20.8038C21.9996 20.034 22.833 19.5529 23.4996 19.9378L32.4996 25.134Z" fill="white"/>
</svg>
